<svg width="30" height="30" viewBox="0 0 30 30" fill="none" xmlns="http://www.w3.org/2000/svg">
  <g filter="url(#filter0_d_12_181)">
    <circle cx="15" cy="11" r="10.5" fill="#50D86A" stroke="#50D86A"/>
    <path fill-rule="evenodd" clip-rule="evenodd" d="M13.629 14.85C13.4519 14.85 13.2825 14.7769 13.1612 14.6479L10.0408 11.3247C9.79758 11.0667 9.81106 10.6606 10.069 10.418C10.3276 10.1755 10.7338 10.1883 10.9757 10.4462L13.6226 13.2638L19.0177 7.35919C19.2577 7.09675 19.6632 7.07943 19.925 7.31813C20.1862 7.55683 20.2041 7.963 19.9654 8.22416L14.1025 14.6408C13.9825 14.773 13.8118 14.8487 13.6335 14.85H13.629Z" fill="white"/>
    <mask id="mask0_12_181" style="mask-type:alpha" maskUnits="userSpaceOnUse" x="9" y="7" width="12" height="8">
      <path fill-rule="evenodd" clip-rule="evenodd" d="M13.629 14.85C13.4519 14.85 13.2825 14.7769 13.1612 14.6479L10.0408 11.3247C9.79758 11.0667 9.81106 10.6606 10.069 10.418C10.3276 10.1755 10.7338 10.1883 10.9757 10.4462L13.6226 13.2638L19.0177 7.35919C19.2577 7.09675 19.6632 7.07943 19.925 7.31813C20.1862 7.55683 20.2041 7.963 19.9654 8.22416L14.1025 14.6408C13.9825 14.773 13.8118 14.8487 13.6335 14.85H13.629Z" fill="white"/>
    </mask>
    <g mask="url(#mask0_12_181)">
      <rect x="7.30005" y="3.3" width="15.4" height="15.4" fill="white"/>
    </g>
  </g>
  <defs>
    <filter id="filter0_d_12_181" x="0" y="0" width="30" height="30" filterUnits="userSpaceOnUse" color-interpolation-filters="sRGB">
      <feFlood flood-opacity="0" result="BackgroundImageFix"/>
      <feColorMatrix in="SourceAlpha" type="matrix" values="0 0 0 0 0 0 0 0 0 0 0 0 0 0 0 0 0 0 127 0" result="hardAlpha"/>
      <feOffset dy="4"/>
      <feGaussianBlur stdDeviation="2"/>
      <feComposite in2="hardAlpha" operator="out"/>
      <feColorMatrix type="matrix" values="0 0 0 0 0 0 0 0 0 0 0 0 0 0 0 0 0 0 0.25 0"/>
      <feBlend mode="normal" in2="BackgroundImageFix" result="effect1_dropShadow_12_181"/>
      <feBlend mode="normal" in="SourceGraphic" in2="effect1_dropShadow_12_181" result="shape"/>
    </filter>
  </defs>
</svg>
